<svg width="64" height="58" viewBox="0 0 64 58" fill="none" xmlns="http://www.w3.org/2000/svg">
<path d="M55.3617 5.47437C63.7936 12.2463 63.3593 23.6134 58.6927 32.4961C54.8944 39.7352 44.066 50.6351 36.7004 54.2904C30.2968 57.4675 25.1244 53.2845 20.2488 49.3654C9.8546 41.0104 -3.0846 25.5538 4.05559 11.4383C8.3595 2.92391 18.292 -0.775364 26.7569 4.32556C28.285 5.24351 30.5166 7.62357 32.3196 7.50265C33.8531 7.39821 36.541 4.80377 38.0251 3.97927C43.6152 0.884635 50.3982 1.48927 55.3562 5.47437H55.3617Z" fill="url(#paint0_linear_1573_2272)"/>
<path d="M19.9685 22.4866C17.9678 22.4866 17.1707 24.8117 17.1707 26.9774C17.1707 29.2476 17.9897 31.5232 19.9685 31.5232C22.1068 31.5232 22.4256 28.9672 22.4476 28.8298H25.6246C25.3663 31.0834 23.6678 33.9032 19.9685 33.9032C16.2693 33.9032 13.9937 30.7317 13.9937 26.9829C13.9937 23.2342 16.3902 20.1121 19.9685 20.1121C23.5469 20.1121 25.3663 23.1572 25.5257 25.0261H22.3651C22.2662 24.2676 21.744 22.4921 19.9685 22.4921V22.4866Z" fill="white"/>
<path d="M37.8382 24.8667C37.8602 28.1977 35.0789 29.1651 33.1441 29.1651H30.764V33.5515H27.5869V20.4309H33.1606C35.4966 20.4309 37.8162 21.6127 37.8382 24.8667ZM30.7585 26.7851H32.9957C34.0565 26.7851 34.6337 26.01 34.6557 24.8502C34.6776 23.6849 33.9576 22.822 32.9957 22.822H30.7585V26.7851Z" fill="white"/>
<path d="M42.8731 28.599V33.568H39.6741V20.4309H45.0333C47.4739 20.4309 49.8924 21.151 49.9309 24.2731C49.9694 26.2299 48.6337 27.1973 47.6717 27.5326C48.3698 27.78 49.1504 28.9398 49.3702 29.8028C49.5516 30.5228 49.4527 30.5063 49.4527 32.0234C49.4527 32.3038 49.6725 33.1337 49.8924 33.5735H46.6933C46.6933 33.5405 46.2756 32.9029 46.2756 32.0949C46.2756 31.3363 46.358 31.0725 46.2371 30.3524C46.1547 29.8083 45.616 28.61 44.819 28.61H42.8786L42.8731 28.599ZM42.8731 26.2244H45.1543C46.0942 26.2244 46.7538 25.5703 46.7538 24.5314C46.7538 23.4926 46.1162 22.822 45.1543 22.822H42.8731V26.2189V26.2244Z" fill="white"/>
<defs>
<linearGradient id="paint0_linear_1573_2272" x1="53.7127" y1="75.0569" x2="31.6654" y2="19.2546" gradientUnits="userSpaceOnUse">
<stop stop-color="#FC1B11"/>
<stop offset="0.09" stop-color="#FD4851"/>
<stop offset="0.17" stop-color="#FE6C84"/>
<stop offset="0.23" stop-color="#FE82A4"/>
<stop offset="0.27" stop-color="#FF8BB0"/>
<stop offset="0.36" stop-color="#FE85A8"/>
<stop offset="0.5" stop-color="#FC7492"/>
<stop offset="0.66" stop-color="#FA5A6F"/>
<stop offset="0.86" stop-color="#F6363E"/>
<stop offset="0.89" stop-color="#F63036"/>
</linearGradient>
</defs>
</svg>
