<svg width="110" height="94" viewBox="0 0 110 94" fill="none" xmlns="http://www.w3.org/2000/svg">
<mask id="mask0_1489_2052" style="mask-type:alpha" maskUnits="userSpaceOnUse" x="0" y="0" width="110" height="94">
<path d="M70.6828 1.22386C90.6268 -3.8931 105.939 9.10177 108.958 25.3898L109.12 26.3337C109.121 26.3404 109.123 26.3473 109.124 26.354C113.654 55.3139 76.095 69.817 59.3019 46.6383L41.6452 22.2659V22.2647C36.2367 14.8032 25.4711 14.0766 19.3649 20.5118C16.4067 23.6305 14.6293 28.2332 15.5661 33.9253C17.283 39.4591 20.8829 44.9718 25.7944 50.508L52.6709 77.2908L52.6721 77.292C53.9768 78.592 56.0914 78.5867 57.3899 77.2777V77.2765L70.181 64.3857C73.0639 61.48 77.7535 61.4639 80.656 64.3499C83.5582 67.2359 83.5744 71.9307 80.6918 74.8363L67.9007 87.7283C60.8345 94.8509 49.3295 94.889 42.2185 87.8011V87.7999L15.1668 60.8429C15.0632 60.7397 14.9625 60.6335 14.8652 60.5243C9.14187 54.1018 3.96725 46.649 1.37209 38.1757L1.28865 37.9108C1.19838 37.6239 1.12536 37.3318 1.07052 37.0361C-0.89157 26.4574 2.34828 16.9137 8.62285 10.2986C21.1474 -2.9019 42.3171 -1.19011 53.1298 12.8785L53.6376 13.5574V13.5586L71.2943 37.931L71.6781 38.4382C79.8796 48.812 96.4733 41.342 94.4876 28.6486V28.6474C94.4595 28.4723 94.4279 28.2907 94.3923 28.0985V28.0962C92.7516 19.2422 85.0406 12.8489 74.3612 15.5884L74.3624 15.5896C73.5168 15.8067 72.4022 16.3271 71.1 17.2017C67.7028 19.4834 63.1008 18.5764 60.8216 15.1755C58.5426 11.7747 59.4486 7.16767 62.8456 4.88599C64.9661 3.46175 67.6454 2.00342 70.6804 1.22386H70.6828Z" fill="url(#paint0_linear_1489_2052)"/>
</mask>
<g mask="url(#mask0_1489_2052)">
<path d="M125.288 40.458C125.288 79.6683 93.5359 111.455 54.3681 111.455C15.2003 111.455 -16.5515 79.6683 -16.5515 40.458C-16.5515 1.24768 15.2003 -30.5386 54.3681 -30.5386C93.5359 -30.5386 125.288 1.24768 125.288 40.458Z" fill="url(#paint1_linear_1489_2052)"/>
</g>
<defs>
<linearGradient id="paint0_linear_1489_2052" x1="11.3098" y1="27.1177" x2="98.7128" y2="71.7083" gradientUnits="userSpaceOnUse">
<stop offset="0.442308" stop-color="#49FEFF"/>
<stop offset="0.644231" stop-color="#FFB3DD"/>
<stop offset="0.889423" stop-color="#EF5E81"/>
</linearGradient>
<linearGradient id="paint1_linear_1489_2052" x1="111.172" y1="-26.5654" x2="7.27345" y2="119.345" gradientUnits="userSpaceOnUse">
<stop offset="0.300695" stop-color="#FB578B" stop-opacity="0.952941"/>
<stop offset="0.494518" stop-color="#FFB8D2" stop-opacity="0.976471"/>
<stop offset="0.616666" stop-color="#1BF8FF"/>
</linearGradient>
</defs>
</svg>
