<svg width="64" height="97" viewBox="0 0 64 97" fill="none" xmlns="http://www.w3.org/2000/svg">
<path d="M40 0.554688C45.2 0.554688 47 5.05469 47 7.05469C47 10.0547 47.2884 13.2603 51.0781 14.9541C55.9284 17.1219 60 20.9914 60 26.5547V30.5547L60.2061 30.5596C62.3194 30.6668 64 32.4147 64 34.5547V41.5547C64 43.6947 62.3194 45.4426 60.2061 45.5498L60 45.5547V70.5547C60 76.118 55.9284 79.9875 51.0781 82.1553C47.2884 83.8491 47 87.0547 47 90.0547C47 92.0547 45.2 96.5547 40 96.5547H20C14.8 96.5547 13 92.0547 13 90.0547C13 87.0547 12.7116 83.8491 8.92188 82.1553C4.0716 79.9875 0 76.118 0 70.5547V26.5547C0 20.9914 4.0716 17.1219 8.92188 14.9541C12.7116 13.2603 13 10.0547 13 7.05469C13 5.05469 14.8 0.554688 20 0.554688H40Z" fill="#D9D9D9"/>
<rect x="4" y="17.5547" width="52" height="61" rx="12" fill="black"/>
<circle cx="30" cy="48" r="18" fill="white"/>
<mask id="mask0_2222_2025" style="mask-type:alpha" maskUnits="userSpaceOnUse" x="17" y="38" width="26" height="23">
<path d="M33.7408 38.2795C38.4981 37.014 42.1506 40.2278 42.8708 44.256L42.9094 44.4895C42.9097 44.4911 42.91 44.4928 42.9103 44.4945C43.9909 51.6566 35.0318 55.2434 31.0261 49.511L26.8145 43.4834V43.4831C25.5244 41.6378 22.9564 41.4581 21.4999 43.0496C20.7942 43.8209 20.3703 44.9592 20.5937 46.3669C21.0033 47.7355 21.862 49.0989 23.0335 50.4681L29.4444 57.0918L29.4447 57.0921C29.7559 57.4135 30.2603 57.4122 30.5701 57.0885V57.0882L33.6211 53.9002C34.3088 53.1815 35.4274 53.1776 36.1198 53.8913C36.8121 54.605 36.8159 55.7661 36.1283 56.4847L33.0772 59.6731C31.3917 61.4346 28.6474 61.444 26.9512 59.6911V59.6908L20.4985 53.024C20.4738 52.9985 20.4498 52.9722 20.4266 52.9452C19.0614 51.3568 17.8271 49.5137 17.208 47.4181L17.1881 47.3526C17.1666 47.2817 17.1492 47.2094 17.1361 47.1363C16.6681 44.52 17.4409 42.1598 18.9376 40.5238C21.9251 37.2591 26.9747 37.6825 29.5539 41.1618L29.675 41.3297V41.33L33.8867 47.3576L33.9783 47.483C35.9346 50.0486 39.8927 48.2012 39.4191 45.062V45.0617C39.4124 45.0183 39.4048 44.9734 39.3963 44.9259V44.9253C39.005 42.7356 37.1656 41.1545 34.6183 41.832L34.6186 41.8323C34.4169 41.886 34.151 42.0147 33.8404 42.231C33.03 42.7953 31.9323 42.571 31.3886 41.7299C30.845 40.8888 31.0611 39.7495 31.8714 39.1852C32.3772 38.8329 33.0163 38.4723 33.7403 38.2795H33.7408Z" fill="url(#paint0_linear_2222_2025)"/>
</mask>
<g mask="url(#mask0_2222_2025)">
<path d="M46.7658 47.9826C46.7658 57.6798 39.192 65.5409 29.8492 65.5409C20.5064 65.5409 12.9326 57.6798 12.9326 47.9826C12.9326 38.2854 20.5064 30.4243 29.8492 30.4243C39.192 30.4243 46.7658 38.2854 46.7658 47.9826Z" fill="url(#paint1_linear_2222_2025)"/>
</g>
<defs>
<linearGradient id="paint0_linear_2222_2025" x1="19.5785" y1="44.6833" x2="40.7316" y2="55.092" gradientUnits="userSpaceOnUse">
<stop offset="0.442308" stop-color="#49FEFF"/>
<stop offset="0.644231" stop-color="#FFB3DD"/>
<stop offset="0.889423" stop-color="#EF5E81"/>
</linearGradient>
<linearGradient id="paint1_linear_2222_2025" x1="43.3988" y1="31.4069" x2="17.4131" y2="66.6046" gradientUnits="userSpaceOnUse">
<stop offset="0.300695" stop-color="#FB578B" stop-opacity="0.952941"/>
<stop offset="0.494518" stop-color="#FFB8D2" stop-opacity="0.976471"/>
<stop offset="0.616666" stop-color="#1BF8FF"/>
</linearGradient>
</defs>
</svg>
