<svg width="35" height="34" viewBox="0 0 35 34" fill="none" xmlns="http://www.w3.org/2000/svg">
<rect x="0.5" width="34" height="34" rx="6" fill="white"/>
<rect width="25.4004" height="21.4492" transform="translate(4.7832 6.4082)" fill="white"/>
<mask id="mask0_626_601" style="mask-type:alpha" maskUnits="userSpaceOnUse" x="4" y="6" width="27" height="22">
<path d="M21.138 6.66885C25.7856 5.48869 29.3538 8.48578 30.0573 12.2424L30.0951 12.4601C30.0953 12.4616 30.0957 12.4632 30.0959 12.4648C31.1517 19.144 22.3992 22.4889 18.4859 17.1431L14.3713 11.5219V11.5216C13.111 9.80075 10.6023 9.63316 9.17931 11.1174C8.48995 11.8367 8.07577 12.8982 8.29407 14.211C8.69418 15.4873 9.53305 16.7587 10.6776 18.0356L16.9407 24.2127L16.9409 24.213C17.245 24.5128 17.7377 24.5116 18.0403 24.2097V24.2094L21.021 21.2363C21.6928 20.5661 22.7857 20.5624 23.462 21.228C24.1384 21.8936 24.1421 22.9764 23.4704 23.6466L20.4897 26.62C18.843 28.2627 16.162 28.2715 14.5049 26.6367V26.6365L8.20102 20.4192C8.17688 20.3954 8.15341 20.3709 8.13074 20.3457C6.79703 18.8644 5.59118 17.1456 4.98643 15.1913L4.96698 15.1302C4.94595 15.064 4.92893 14.9967 4.91615 14.9285C4.45892 12.4886 5.21391 10.2875 6.67608 8.76182C9.59469 5.7173 14.5279 6.1121 17.0476 9.35683L17.1659 9.51342V9.5137L21.2805 15.1349L21.3699 15.2518C23.2811 17.6444 27.148 15.9216 26.6852 12.994V12.9937C26.6787 12.9533 26.6713 12.9115 26.663 12.8671V12.8666C26.2807 10.8245 24.4838 9.35001 21.9952 9.98183L21.9954 9.98211C21.7984 10.0322 21.5386 10.1522 21.2352 10.3539C20.4435 10.8802 19.3711 10.671 18.84 9.88661C18.3089 9.10226 18.5201 8.03971 19.3117 7.51347C19.8058 7.18499 20.4302 6.84864 21.1374 6.66885H21.138Z" fill="url(#paint0_linear_626_601)"/>
</mask>
<g mask="url(#mask0_626_601)">
<path d="M33.8625 15.7176C33.8625 24.761 26.4634 32.0921 17.3361 32.0921C8.20873 32.0921 0.80957 24.761 0.80957 15.7176C0.80957 6.67429 8.20873 -0.656784 17.3361 -0.656784C26.4634 -0.656784 33.8625 6.67429 33.8625 15.7176Z" fill="url(#paint1_linear_626_601)"/>
</g>
<defs>
<linearGradient id="paint0_linear_626_601" x1="7.30222" y1="12.6409" x2="27.5824" y2="23.0947" gradientUnits="userSpaceOnUse">
<stop offset="0.442308" stop-color="#49FEFF"/>
<stop offset="0.644231" stop-color="#FFB3DD"/>
<stop offset="0.889423" stop-color="#EF5E81"/>
</linearGradient>
<linearGradient id="paint1_linear_626_601" x1="30.5731" y1="0.259571" x2="6.69225" y2="34.1451" gradientUnits="userSpaceOnUse">
<stop offset="0.300695" stop-color="#FB578B" stop-opacity="0.952941"/>
<stop offset="0.494518" stop-color="#FFB8D2" stop-opacity="0.976471"/>
<stop offset="0.616666" stop-color="#1BF8FF"/>
</linearGradient>
</defs>
</svg>
