<svg width="145" height="30" viewBox="0 0 145 30" fill="none" xmlns="http://www.w3.org/2000/svg">
<g clip-path="url(#clip0_2746_835)">
<path d="M0.165714 29.7159C1.30204 29.7159 4.97143 29.7869 9.96653 29.8106C10.0849 29.8106 10.2033 29.8106 10.3216 29.7869C15.3641 29.4791 20.2645 25.9511 19.791 19.5817C19.6253 17.3797 18.3706 14.633 16.4531 13.6622C16.4531 13.6622 16.4767 13.6385 16.5004 13.6149C16.9976 13.3307 20.3118 10.3236 18.3706 5.63538C15.08 -2.3441 1.77551 -1.25491 0.213061 5.16182C0.142041 5.42228 0 6.17997 0 6.84296M4.80571 9.63696C4.80571 7.9795 4.71102 6.5825 5.37388 5.75377C6.03673 4.92504 6.98367 4.59355 8.66449 4.49884C9.87184 4.4278 10.5347 4.49884 11.3396 4.7593C12.3812 5.09079 12.9731 5.6117 13.4939 6.46411C14.4645 8.00318 13.8727 10.6788 12.5943 11.105C12.3576 11.176 12.1682 11.176 11.1976 11.176H4.80571M9.91918 25.7143H7.55184H4.75837V15.225H11.3633C12.0261 15.225 12.9967 15.9116 13.2335 16.0537C17.0212 18.4925 15.2457 25.7853 9.89551 25.7143H9.91918Z" fill="black"/>
<path d="M26.6563 21.2628C27.8399 25.6905 33.0008 26.8034 36.4097 23.9857C36.6465 23.7963 37.4987 22.6834 37.4987 22.6834H41.9967L42.3044 23.2517C37.7118 34.925 19.0808 30.5209 21.9452 17.2612C24.2179 6.81919 40.813 6.9139 42.3518 18.1136C42.4701 19.0607 42.7069 20.5998 41.9967 21.2864H26.6563V21.2628ZM37.0726 17.0481C35.3681 12.9991 28.6922 12.9518 27.2244 17.0481H37.0726Z" fill="black"/>
<path d="M41.9968 22.6836C41.9968 22.6836 42.4466 22.873 42.3046 23.2519L41.9968 22.6836Z" fill="black"/>
<path d="M63.5395 13.0702C62.1428 11.2944 59.5624 9.94471 57.3371 9.70793C41.2628 8.02679 40.9314 29.9526 55.1118 29.9526C58.5207 29.9526 60.1542 28.7924 60.1542 28.7924C60.3673 28.6503 60.4146 29.1949 60.4146 29.5027V29.6921H65.102V16.5745C65.102 16.0773 64.5575 14.3725 63.5395 13.0702ZM49.6432 18.8476C49.9036 16.8824 51.7975 14.5856 53.7624 14.2541C58.5444 13.449 61.5273 16.764 60.391 21.4522C58.7101 28.3425 48.7673 25.5958 49.6432 18.8476Z" fill="black"/>
<path d="M71.8726 9.44754V1.72852H67.0195V11.6496C67.0195 13.0229 67.0195 14.4199 67.0195 15.7459V16.1721C67.0669 19.0845 67.1852 21.6891 67.493 23.1097C68.4163 27.3007 71.8016 29.8343 76.0865 29.858V25.3591C72.9852 25.3828 72.1803 21.618 71.9673 18.4925V14.4673C71.9673 14.4673 72.062 14.3252 72.1567 14.2542H76.0865V9.44754H71.8726Z" fill="black"/>
<path d="M126.487 14.7988L130.015 10.1579L124.854 8.33472L123.197 10.4421L126.487 14.7988Z" fill="black"/>
<path d="M122.936 19.7948L124.854 17.1666L121.563 12.8098L119.622 15.4381L122.936 19.7948Z" fill="black"/>
<path d="M117.989 17.7349L114.509 22.3757L119.172 24.9093L121.279 22.1153L117.989 17.7349Z" fill="black"/>
<path d="M133.779 28.5794C130.133 28.5794 127.103 27.1824 125.02 24.5305L114.911 10.7736C113.869 9.44763 112.425 8.73729 110.768 8.73729C110.484 8.73729 110.2 8.73729 109.892 8.80833C106.388 9.28189 104.85 13.1414 104.921 16.551C104.992 19.937 106.602 23.5124 110.011 23.8202C110.224 23.8202 110.46 23.8438 110.673 23.8438C112.473 23.8438 113.964 23.0861 115.029 21.6891L115.384 21.2156L115.858 21.5944L116.592 21.8312L116.473 21.9733L119.835 24.0569L119.456 24.5542C117.373 27.2061 114.343 28.6031 110.697 28.6031C109.987 28.6031 109.229 28.5558 108.472 28.4374C102.269 27.5376 99.4758 21.6891 99.4758 16.2906C99.4758 10.892 102.293 5.01985 108.614 4.12009C109.324 4.02538 110.034 3.95434 110.721 3.95434C114.224 3.95434 117.184 5.30399 119.267 7.88489L129.731 22.0443C130.772 23.2519 132.145 23.8438 133.802 23.8438C134.015 23.8438 134.228 23.8438 134.465 23.8202C137.874 23.5124 139.484 19.937 139.555 16.551C139.626 13.1651 138.087 9.28189 134.584 8.80833C134.276 8.76097 133.992 8.73729 133.708 8.73729C132.027 8.73729 130.606 9.44763 129.565 10.7973L129.304 11.1051L124.167 9.28189L125.185 7.88489C127.292 5.28031 130.251 3.93066 133.755 3.93066C134.442 3.93066 135.152 3.97802 135.862 4.09641C142.183 4.99617 145 10.8683 145 16.2669C145 21.6655 142.23 27.5139 136.004 28.4137C135.246 28.5321 134.513 28.5794 133.779 28.5794Z" fill="black"/>
<path d="M95.854 2.22583H90.4328L88.0654 7.3166H90.7642C90.7642 7.3166 90.9536 7.38763 90.9536 7.50602L91.0009 29.2898H96.2091V2.22583H95.8777H95.854Z" fill="black"/>
</g>
<defs>
<clipPath id="clip0_2746_835">
<rect width="145" height="30" fill="white"/>
</clipPath>
</defs>
</svg>
