<?xml version="1.0" encoding="UTF-8"?>
<svg id="_레이어_2" data-name="레이어 2" xmlns="http://www.w3.org/2000/svg" viewBox="0 0 61.25 12.67">
  <g id="_레이어_1-2" data-name="레이어 1">
    <g>
      <path d="M.07,12.55c.48,0,2.03.03,4.14.04.05,0,.1,0,.15-.01,2.13-.13,4.2-1.62,4-4.31-.07-.93-.6-2.09-1.41-2.5,0,0,.01-.01.02-.02.21-.12,1.61-1.39.79-3.37C6.37-.99.75-.53.09,2.18c-.03.11-.09.43-.09.71M2.03,4.07c0-.7-.04-1.29.24-1.64s.68-.49,1.39-.53c.51-.03.79,0,1.13.11.44.14.69.36.91.72.41.65.16,1.78-.38,1.96-.1.03-.18.03-.59.03h-2.7M4.19,10.86h0s-1,0-1,0h-1.18v-4.43h2.79c.28,0,.69.29.79.35,1.6,1.03.85,4.11-1.41,4.08Z"/>
      <path d="M11.26,8.98c.5,1.87,2.68,2.34,4.12,1.15.1-.08.46-.55.46-.55h1.9l.13.24c-1.94,4.93-9.81,3.07-8.6-2.53.96-4.41,7.97-4.37,8.62.36.05.4.15,1.05-.15,1.34h-6.48ZM15.66,7.2c-.72-1.71-3.54-1.73-4.16,0h4.16Z"/>
      <path d="M17.74,9.58h0s.19.08.13.24"/>
      <path d="M26.84,5.52c-.59-.75-1.68-1.32-2.62-1.42-6.79-.71-6.93,8.55-.94,8.55,1.44,0,2.13-.49,2.13-.49.09-.06.11.17.11.3v.08h1.98v-5.54c0-.21-.23-.93-.66-1.48ZM20.97,7.96c.11-.83.91-1.8,1.74-1.94,2.02-.34,3.28,1.06,2.8,3.04-.71,2.91-4.91,1.75-4.54-1.1Z"/>
      <path d="M30.36,3.99V.73h-2.05v4.19c0,.58,0,1.17,0,1.73v.18h0c.02,1.23.07,2.33.2,2.93.39,1.77,1.82,2.84,3.63,2.85v-1.9c-1.31.01-1.65-1.58-1.74-2.9h0v-1.7s.04-.06.08-.09h1.66v-2.03h-1.78Z"/>
      <g>
        <g>
          <polygon points="53.43 6.25 54.92 4.29 52.74 3.52 52.04 4.41 53.43 6.25"/>
          <polygon points="51.93 8.36 52.74 7.25 51.35 5.41 50.53 6.52 51.93 8.36"/>
          <polygon points="49.84 7.49 48.37 9.45 50.34 10.52 51.23 9.34 49.84 7.49"/>
        </g>
        <path d="M56.51,12.07c-1.54,0-2.82-.59-3.7-1.71l-4.27-5.81c-.44-.56-1.05-.86-1.75-.86-.12,0-.24,0-.37.03-1.48.2-2.13,1.83-2.1,3.27.03,1.43.71,2.94,2.15,3.07.09,0,.19.01.28.01.76,0,1.39-.32,1.84-.91l.15-.2.2.16.31.1-.05.06,1.42.88-.16.21c-.88,1.12-2.16,1.71-3.7,1.71-.3,0-.62-.02-.94-.07-2.62-.38-3.8-2.85-3.8-5.13,0-2.28,1.19-4.76,3.86-5.14.3-.04.6-.07.89-.07,1.48,0,2.73.57,3.61,1.66l4.42,5.98c.44.51,1.02.76,1.72.76.09,0,.18,0,.28-.01,1.44-.13,2.12-1.64,2.15-3.07.03-1.43-.62-3.07-2.1-3.27-.13-.02-.25-.03-.37-.03-.71,0-1.31.3-1.75.87l-.11.13-2.17-.77.43-.59c.89-1.1,2.14-1.67,3.62-1.67.29,0,.59.02.89.07,2.67.38,3.86,2.86,3.86,5.14,0,2.28-1.17,4.75-3.8,5.13-.32.05-.63.07-.94.07h0Z"/>
      </g>
      <path d="M40.49.94h-2.29l-1,2.15h1.14s.08.03.08.08l.02,9.2h2.2V.94h-.14Z"/>
    </g>
  </g>
</svg>